<?xml version="1.0" encoding="UTF-8"?>
<svg version="1.1" xmlns="http://www.w3.org/2000/svg" width="512" height="512">
<path d="M0 0 C168.96 0 337.92 0 512 0 C512 168.96 512 337.92 512 512 C343.04 512 174.08 512 0 512 C0 343.04 0 174.08 0 0 Z " fill="#FDFDFD" transform="translate(0,0)"/>
<path d="M0 0 C1.81219276 -0.01429802 1.81219276 -0.01429802 3.66099548 -0.02888489 C4.96726395 -0.02797348 6.27353241 -0.02706207 7.61938477 -0.02612305 C8.97315096 -0.03001051 10.32691593 -0.03434529 11.68067932 -0.03910828 C14.51779128 -0.04656887 17.3547788 -0.04628051 20.19189453 -0.04101562 C23.82478275 -0.03522203 27.45716096 -0.05214942 31.08996487 -0.0753603 C33.88583852 -0.09010406 36.68158955 -0.09096849 39.47749519 -0.08785057 C41.46723296 -0.08861265 43.45695171 -0.10248145 45.44664001 -0.11653137 C47.26356102 -0.10718819 47.26356102 -0.10718819 49.1171875 -0.09765625 C50.18291489 -0.09828568 51.24864227 -0.0989151 52.34666443 -0.0995636 C55.4963019 0.32493101 56.87864954 1.05349273 59.12329102 3.2746582 C59.57739258 5.81835937 59.57739258 5.81835937 59.51391602 8.81762695 C59.50102539 9.89077148 59.48813477 10.96391602 59.47485352 12.06958008 C59.42458008 13.74890625 59.42458008 13.74890625 59.37329102 15.4621582 C59.35524414 16.59331055 59.33719727 17.72446289 59.31860352 18.88989258 C59.27141753 21.68566196 59.20559697 24.47973792 59.12329102 27.2746582 C59.98607666 27.25894775 60.8488623 27.2432373 61.73779297 27.22705078 C64.94138369 27.17589866 68.14476617 27.1382966 71.34863281 27.10986328 C72.73477021 27.09478423 74.12085996 27.0743177 75.50683594 27.04833984 C77.49987248 27.01192105 79.49325824 26.99652802 81.48657227 26.98168945 C82.68580322 26.965979 83.88503418 26.95026855 85.12060547 26.93408203 C88.12329102 27.2746582 88.12329102 27.2746582 89.79924011 28.31547546 C91.84120241 31.33694335 91.43856239 34.45335966 91.31079102 37.9621582 C91.29725586 38.66405273 91.2837207 39.36594727 91.26977539 40.08911133 C91.23449284 41.81795649 91.18068685 43.54640586 91.12329102 45.2746582 C91.93095413 45.27021698 92.73861725 45.26577576 93.570755 45.26119995 C101.17806017 45.22114443 108.78531428 45.19068463 116.39269733 45.17103386 C120.30383613 45.16059163 124.21488787 45.14642448 128.12597656 45.1237793 C131.89960271 45.10206648 135.67314506 45.09009289 139.44682884 45.08490372 C140.8873546 45.08120514 142.32787572 45.07398284 143.76836586 45.06319809 C145.78417116 45.04870474 147.80006058 45.04784147 149.81591797 45.04760742 C151.53800224 45.04094559 151.53800224 45.04094559 153.2948761 45.03414917 C156.12329102 45.2746582 156.12329102 45.2746582 159.12329102 47.2746582 C159.41750433 50.10962725 159.51432562 52.72622359 159.48405457 55.56350708 C159.48661784 56.43092903 159.48918111 57.29835098 159.49182206 58.19205844 C159.49678666 61.1157734 159.48022313 64.03897864 159.46386719 66.96264648 C159.46302149 69.05158476 159.46349493 71.14052392 159.4651947 73.22946167 C159.46605833 78.91518978 159.4483732 84.60072949 159.42747283 90.28641367 C159.40876712 96.2228237 159.40696042 102.15923765 159.40339661 108.09567261 C159.39405815 119.34375905 159.36942004 130.59175841 159.33934814 141.83980644 C159.30586008 154.64249905 159.28933221 167.44519575 159.27426183 180.24792123 C159.24287203 206.59021524 159.19007662 232.93243185 159.12329102 259.2746582 C160.05810303 259.56655029 160.99291504 259.85844238 161.95605469 260.15917969 C167.6078604 262.14970619 171.68651417 266.35148314 176.12329102 270.2746582 C176.91348633 270.96817383 177.70368164 271.66168945 178.51782227 272.3762207 C193.94979166 286.8082201 203.18158208 308.38218841 204.28344727 329.31762695 C204.90506054 353.23622468 196.59652113 375.81499282 180.11621094 393.23950195 C164.9443544 408.86554281 145.58790621 418.83513868 123.63500977 419.6105957 C100.46515629 419.91451218 100.46515629 419.91451218 89.12329102 415.2746582 C88.09719727 414.90083008 87.07110352 414.52700195 86.01391602 414.1418457 C76.94717766 410.66702973 68.81240093 406.27435663 62.1880374 399.08606249 C56.83088576 393.48403255 52.62568603 391.10200076 44.60963535 390.88638961 C42.45011903 390.88702964 40.29570114 390.94169025 38.13696289 390.99755859 C36.56534042 390.99734688 34.99371221 390.99222099 33.42211914 390.98260498 C30.06219381 390.97251362 26.70497735 390.99673181 23.34544373 391.0486927 C18.03345739 391.13079358 12.72303896 391.13562149 7.41052246 391.13096619 C-0.98553316 391.13278365 -9.38030679 391.18696738 -17.77598524 391.2632336 C-32.83138833 391.39848828 -47.88717327 391.4486192 -62.9431262 391.47267145 C-68.22441278 391.48325291 -73.50481323 391.51835581 -78.78581333 391.57383454 C-82.06370832 391.60509141 -85.34155086 391.62051099 -88.61956787 391.63226318 C-90.14021113 391.64131918 -91.66083108 391.65734556 -93.18132019 391.68081474 C-95.25531814 391.71205335 -97.32802165 391.71878801 -99.40222168 391.71961975 C-100.5628437 391.73021958 -101.72346573 391.74081942 -102.91925812 391.75174046 C-106.61949512 391.15483539 -107.57272406 390.18365974 -109.87670898 387.2746582 C-110.37695497 384.6076383 -110.37695497 384.6076383 -110.37728024 381.49655819 C-110.38709453 380.30957299 -110.39690882 379.12258779 -110.40702051 377.89963335 C-110.3974155 376.5942996 -110.3878105 375.28896585 -110.37791443 373.94407654 C-110.38180618 372.54444932 -110.38744562 371.14482604 -110.39468533 369.74521214 C-110.40947616 365.89476774 -110.39923754 362.04473078 -110.38494861 358.19429934 C-110.37386328 354.04360519 -110.38577326 349.89296933 -110.39479065 345.74227905 C-110.40874144 337.60965119 -110.40115358 329.47717833 -110.38611507 321.34455781 C-110.36927773 311.87990891 -110.37246231 302.41529886 -110.37620915 292.95063961 C-110.38209101 276.06748487 -110.36790292 259.18440464 -110.34326172 242.30126953 C-110.31933618 225.90670987 -110.31225852 209.51224977 -110.32275391 193.11767578 C-110.33415439 175.27723969 -110.33610425 157.43684967 -110.32165581 139.59641415 C-110.32012992 137.69535482 -110.31860956 135.79429549 -110.3170948 133.89323616 C-110.31633699 132.95780487 -110.31557917 132.02237357 -110.3147984 131.05859588 C-110.31004913 124.4560587 -110.31191152 117.85354205 -110.3161602 111.25100517 C-110.32107877 103.20914825 -110.31513868 95.16738561 -110.29526591 87.12555032 C-110.2853712 83.0198903 -110.28031215 78.91437406 -110.28815842 74.80870628 C-110.29518718 71.05409108 -110.28847701 67.29976669 -110.27055479 63.54518998 C-110.26455963 61.5354448 -110.27336383 59.52567255 -110.2826013 57.51593965 C-110.27416136 56.3315622 -110.26572142 55.14718475 -110.25702572 53.92691708 C-110.25599659 52.90042299 -110.25496746 51.87392891 -110.25390714 50.81632894 C-109.87670898 48.2746582 -109.87670898 48.2746582 -108.53208786 46.44393975 C-105.92754856 44.60421606 -103.626332 44.91608893 -100.47753906 44.93408203 C-99.51127846 44.93342491 -99.51127846 44.93342491 -98.52549744 44.93275452 C-96.39876877 44.93484262 -94.27283097 44.95817307 -92.14624023 44.98168945 C-90.67079601 44.98728537 -89.1953462 44.99155549 -87.71989441 44.99455261 C-83.83831364 45.00600184 -79.95707015 45.03546934 -76.07562256 45.06866455 C-72.11418216 45.09936397 -68.1526872 45.11305765 -64.19116211 45.12817383 C-56.41952405 45.16033926 -48.64816379 45.21153616 -40.87670898 45.2746582 C-40.89991211 44.14286133 -40.92311523 43.01106445 -40.94702148 41.8449707 C-40.96577799 40.36320645 -40.98397832 38.88143509 -41.00170898 37.3996582 C-41.0184668 36.65329102 -41.03522461 35.90692383 -41.05249023 35.13793945 C-41.07010488 33.18271359 -40.97991088 31.22723799 -40.87670898 29.2746582 C-38.87670898 27.2746582 -38.87670898 27.2746582 -35.89575195 27.04760742 C-34.64938965 27.05808105 -33.40302734 27.06855469 -32.11889648 27.0793457 C-31.12431931 27.08359055 -31.12431931 27.08359055 -30.10964966 27.08792114 C-27.99015315 27.09912385 -25.87107794 27.12422769 -23.75170898 27.1496582 C-22.31551717 27.15968793 -20.87931873 27.16881379 -19.44311523 27.17700195 C-15.9208427 27.1990632 -12.39881695 27.23359327 -8.87670898 27.2746582 C-8.89241943 26.52780762 -8.90812988 25.78095703 -8.92431641 25.01147461 C-8.98651975 21.64094559 -9.02565318 18.27053708 -9.06420898 14.8996582 C-9.0893457 13.7240332 -9.11448242 12.5484082 -9.14038086 11.3371582 C-9.15004883 10.21567383 -9.1597168 9.09418945 -9.16967773 7.9387207 C-9.18538818 6.90183105 -9.20109863 5.86494141 -9.21728516 4.79663086 C-9.10489502 3.96437988 -8.99250488 3.13212891 -8.87670898 2.2746582 C-5.41589787 -0.0325492 -4.08148033 0.01765839 0 0 Z " fill="#060609" transform="translate(208.876708984375,45.725341796875)"/>
<path d="M0 0 C12.54 0 25.08 0 38 0 C38.4375 11.4375 38.4375 11.4375 38.56811523 15.04858398 C38.6252771 16.44572632 38.6252771 16.44572632 38.68359375 17.87109375 C38.73858032 19.30859985 38.73858032 19.30859985 38.79467773 20.77514648 C38.75834424 22.97138925 38.75834424 22.97138925 40 24 C41.6575762 24.09611419 43.31926986 24.12187755 44.97962952 24.12025452 C46.59720909 24.12231651 46.59720909 24.12231651 48.24746704 24.12442017 C49.4407663 24.12082489 50.63406555 24.11722961 51.86352539 24.11352539 C53.11212845 24.11367142 54.36073151 24.11381744 55.64717102 24.1139679 C59.08090994 24.11338891 62.51458938 24.10835955 65.94831777 24.10139394 C69.53312459 24.09515998 73.11793213 24.09455657 76.70274353 24.09336853 C83.49550045 24.09025534 90.28824135 24.08204212 97.08099121 24.07201904 C104.81242494 24.06085753 112.54385942 24.05534736 120.27529919 24.05032361 C136.18354208 24.03985949 152.09176898 24.02226029 168 24 C169.23060421 21.53879159 169.2057723 19.74223134 169.31640625 16.9921875 C169.35451416 16.1038623 169.39262207 15.21553711 169.43188477 14.30029297 C169.47498779 13.16994629 169.51809082 12.03959961 169.5625 10.875 C169.706875 7.28625 169.85125 3.6975 170 0 C182.54 0 195.08 0 208 0 C208.02271182 20.86482334 208.04107424 41.72963643 208.05181217 62.59446907 C208.05693399 72.28580294 208.06389664 81.9771285 208.07543945 91.66845703 C208.08551373 100.13095159 208.0918832 108.59344012 208.09408849 117.05594051 C208.09537434 121.5226236 208.09832115 125.98928947 208.10573006 130.45596695 C208.13957603 151.66118941 207.89434804 172.81136746 207 194 C206.27771147 194.01657402 205.55542294 194.03314804 204.81124687 194.0502243 C203.86217524 194.07228188 202.9131036 194.09433945 201.93527222 194.11706543 C200.99513212 194.1387957 200.05499203 194.16052597 199.08636284 194.18291473 C180.44471696 194.65503422 162.39068746 198.9057541 147 210 C146.32356445 210.81557373 145.64712891 211.63114746 144.95019531 212.47143555 C140.05191591 217.97519391 135.91765911 220.18660906 128.49804688 220.90600586 C121.27367638 221.29449077 114.05626276 221.26046287 106.8258667 221.15020752 C103.34612141 221.10795252 99.86663769 221.12298853 96.38671875 221.1328125 C89.59035241 221.14375159 82.79572916 221.09230665 76 221 C75.61781233 222.65614657 75.28604898 224.32457024 75 226 C76.63959237 227.63959237 78.5334438 227.16642287 80.79516602 227.20532227 C81.81614883 227.22526749 82.83713165 227.24521271 83.88905334 227.26576233 C84.9994548 227.28247482 86.10985626 227.29918732 87.25390625 227.31640625 C88.38448959 227.33718735 89.51507294 227.35796844 90.67991638 227.37937927 C94.30737985 227.44499797 97.93491833 227.50381677 101.5625 227.5625 C104.01498186 227.60567351 106.467456 227.6492874 108.91992188 227.69335938 C114.94653427 227.80069184 120.97322201 227.9024349 127 228 C125.125 232.875 125.125 232.875 124 234 C122.49683231 234.1224331 120.98811833 234.17776285 119.48022461 234.20532227 C118.51930405 234.22526749 117.55838348 234.24521271 116.56834412 234.26576233 C115.523564 234.28247482 114.47878387 234.29918732 113.40234375 234.31640625 C112.33834854 234.33718735 111.27435333 234.35796844 110.17811584 234.37937927 C106.7646456 234.44499254 103.35109571 234.50381423 99.9375 234.5625 C97.62954891 234.60567403 95.321606 234.64928794 93.01367188 234.69335938 C87.34253318 234.80068584 81.67131448 234.90242992 76 235 C75.67 237.31 75.34 239.62 75 242 C96.78 242.495 96.78 242.495 119 243 C117.35 247.95 115.7 252.9 114 258 C112.34120868 264.81056617 111.66070911 271.07007808 111.6875 278.0625 C111.67138672 278.87654297 111.65527344 279.69058594 111.63867188 280.52929688 C111.63188507 289.45395076 113.38322072 296.83825077 115 306 C89.59 306 64.18 306 38 306 C37.67 291.48 37.34 276.96 37 262 C24.46 261.67 11.92 261.34 -1 261 C-0.67 174.87 -0.34 88.74 0 0 Z " fill="#F0F0F7" transform="translate(130,100)"/>
<path d="M0 0 C0.98484375 0.32871094 1.9696875 0.65742188 2.984375 0.99609375 C22.53810678 8.31607883 37.6218126 23.63492474 46.5625 42.25390625 C55.10952462 62.98552847 54.71134426 83.57803382 46.8125 104.3125 C37.61702799 124.54812837 21.20175569 138.76696335 0.73828125 146.7734375 C-18.95300028 153.23431775 -40.70810273 151.70126686 -59.3125 142.75 C-65.5061326 139.4718386 -70.81174281 135.69497637 -76 131 C-76.76957031 130.32324219 -77.53914063 129.64648438 -78.33203125 128.94921875 C-91.22447118 116.93530965 -100.72665922 97.9238636 -101.3984375 80.1328125 C-101.41159503 78.13023632 -101.40334827 76.12741875 -101.375 74.125 C-101.36339844 73.06925781 -101.35179687 72.01351562 -101.33984375 70.92578125 C-100.90106585 49.99349441 -91.77563499 30.79447831 -76.64453125 16.23046875 C-68.48262884 9.34650084 -58.99394588 3.74222643 -49 0 C-48.17371094 -0.31839844 -47.34742188 -0.63679688 -46.49609375 -0.96484375 C-32.43846525 -5.40517182 -13.91996517 -4.80199916 0 0 Z " fill="#E0E6F4" transform="translate(351,306)"/>
<path d="M0 0 C4.29 0 8.58 0 13 0 C12.99354745 1.36259665 12.9870949 2.72519331 12.98044682 4.12908077 C12.8287882 36.48628997 12.71338978 68.84341189 12.64254269 101.20089593 C12.63378792 105.18495663 12.62472765 109.16901659 12.61547852 113.15307617 C12.61272426 114.34279028 12.61272426 114.34279028 12.60991435 115.55653901 C12.57946869 128.39309717 12.52428429 141.22943553 12.45993043 154.06586336 C12.39443163 167.24070769 12.35558052 180.41543702 12.34138054 193.59043747 C12.33178341 201.71794221 12.30149115 209.84482562 12.24458473 217.97213907 C12.20315081 224.20795941 12.19882322 230.44330771 12.20824623 236.6792469 C12.20632102 239.23463387 12.19240406 241.79004443 12.16556168 244.34529114 C12.13067725 247.83749595 12.13912443 251.32705326 12.15821838 254.81932068 C12.13782849 255.82809735 12.1174386 256.83687403 12.09643084 257.87621969 C12.20906668 265.50930189 14.83774619 269.52056969 20 275 C20.84304687 275.95648438 21.68609375 276.91296875 22.5546875 277.8984375 C23.70324219 279.12433594 23.70324219 279.12433594 24.875 280.375 C28.19257585 283.97279342 31.37034608 287.62413332 34.4375 291.4375 C39.36564214 297.53859249 44.61248516 303.30229492 50 309 C50.70364182 309.86763474 51.40728363 310.73526947 52.13224792 311.62919617 C55.8525751 314.7048337 58.84115716 314.71012307 63.4621582 314.65942383 C64.3016954 314.66990753 65.1412326 314.68039124 66.00621033 314.69119263 C68.77144463 314.71991327 71.53542469 314.71365477 74.30078125 314.70703125 C76.22179227 314.72014812 78.14278949 314.73545231 80.06376648 314.75285339 C85.11247019 314.79271757 90.16081323 314.80289477 95.20965576 314.80688477 C100.36449128 314.8162135 105.51911465 314.85362544 110.67382812 314.88867188 C120.78254216 314.95326221 130.89109767 314.98649047 141 315 C142.00508801 316.78881736 143.00392736 318.58114696 144 320.375 C144.556875 321.37273437 145.11375 322.37046875 145.6875 323.3984375 C147 326 147 326 147 328 C98.49 328 49.98 328 0 328 C0 219.76 0 111.52 0 0 Z " fill="#6A94F9" transform="translate(108,100)"/>
<path d="M0 0 C37.62 0 75.24 0 114 0 C114 11.22 114 22.44 114 34 C76.38 34 38.76 34 0 34 C0 22.78 0 11.56 0 0 Z " fill="#6994FB" transform="translate(177,82)"/>
<path d="M0 0 C3.96 0 7.92 0 12 0 C12 65.67 12 131.34 12 199 C7.11820173 198.30260025 3.49206998 197.64344024 -1 196 C-1.02332591 170.5924302 -1.04097766 145.184862 -1.05181217 119.77728367 C-1.05697579 107.98099472 -1.06401972 96.18471242 -1.07543945 84.38842773 C-1.0853843 74.11079003 -1.09185295 63.83315713 -1.09408849 53.55551475 C-1.09539594 48.10998212 -1.09848393 42.66446325 -1.10573006 37.21893501 C-1.11248713 32.09974791 -1.1146176 26.9805803 -1.11310768 21.86138916 C-1.11338415 19.97672864 -1.11539112 18.0920675 -1.11920547 16.20741081 C-1.12413785 13.64598563 -1.12299999 11.08463532 -1.12025452 8.52320862 C-1.12316736 7.76738654 -1.1260802 7.01156447 -1.12908131 6.23283869 C-1.11412121 1.11412121 -1.11412121 1.11412121 0 0 Z " fill="#6B94F9" transform="translate(347,100)"/>
<path d="M0 0 C7.26123511 4.64333251 12.51409037 9.89726603 15.05859375 18.31640625 C16.19739533 26.51980879 15.40663213 34.17145555 11.05859375 41.31640625 C6.88825124 46.64005144 1.76284475 51.66103563 -4.94140625 53.31640625 C-13.42475252 54.15772985 -21.79789721 54.6260071 -28.94140625 49.31640625 C-29.99328125 48.59453125 -31.04515625 47.87265625 -32.12890625 47.12890625 C-38.41462686 40.84318564 -41.04181246 33.95728484 -41.31640625 25.19140625 C-41.23045251 16.67243552 -38.37684087 10.69670961 -32.69140625 4.44140625 C-23.68067319 -3.73786432 -10.96644674 -5.77499122 0 0 Z " fill="#080506" transform="translate(246.94140625,138.68359375)"/>
<path d="M0 0 C4.29 0 8.58 0 13 0 C12.99354745 1.36259665 12.9870949 2.72519331 12.98044682 4.12908077 C12.8287882 36.48628997 12.71338978 68.84341189 12.64254269 101.20089593 C12.63378792 105.18495663 12.62472765 109.16901659 12.61547852 113.15307617 C12.61272426 114.34279028 12.61272426 114.34279028 12.60991435 115.55653901 C12.57946869 128.39309717 12.52428429 141.22943553 12.45993043 154.06586336 C12.39443163 167.24070769 12.35558052 180.41543702 12.34138054 193.59043747 C12.33178341 201.71794221 12.30149115 209.84482562 12.24458473 217.97213907 C12.20315081 224.20795941 12.19882322 230.44330771 12.20824623 236.6792469 C12.20632102 239.23463387 12.19240406 241.79004443 12.16556168 244.34529114 C12.13067725 247.83749595 12.13912443 251.32705326 12.15821838 254.81932068 C12.13782849 255.82809735 12.1174386 256.83687403 12.09643084 257.87621969 C12.20918813 265.51753195 14.84290987 269.51167367 20 275 C20.49560175 275.56740274 20.9912035 276.13480549 21.50182348 276.71940225 C22.78792886 278.1900576 24.11159856 279.62762036 25.4375 281.0625 C26.30246094 282.00222656 27.16742188 282.94195312 28.05859375 283.91015625 C29.01958984 284.94462891 29.01958984 284.94462891 30 286 C29.67 286.66 29.34 287.32 29 288 C24.47822926 285.97299933 22.36729159 283.76010524 20.0625 279.4375 C18.4724065 276.52744472 17.27363538 275.05223994 14 274 C14 272.68 14 271.36 14 270 C13.34 270 12.68 270 12 270 C10.82237703 267.64475405 10.87570769 266.25677629 10.87695217 263.6309185 C10.87496112 262.70731997 10.87297007 261.78372144 10.87091869 260.83213508 C10.87383153 259.81075041 10.87674437 258.78936575 10.87974548 257.73703003 C10.87889106 256.65726336 10.87803663 255.57749668 10.87715632 254.46500981 C10.87550049 250.82284808 10.88102459 247.18073175 10.88647461 243.53857422 C10.88675648 240.93732708 10.88659874 238.33607986 10.8860321 235.73483276 C10.88550699 230.12215576 10.88865248 224.50949034 10.89426994 218.89681625 C10.90238664 210.78176786 10.90500034 202.66672509 10.90625793 194.55167307 C10.90844819 181.38649631 10.91510755 168.22132574 10.92456055 155.05615234 C10.93373535 142.26513703 10.94081585 129.4741234 10.94506836 116.68310547 C10.94533108 115.89506408 10.94559381 115.1070227 10.94586449 114.29510127 C10.9471695 110.34184774 10.94843322 106.38859419 10.94967639 102.43534064 C10.96004817 69.62355593 10.97766576 36.81177879 11 4 C8.36 3.67 5.72 3.34 3 3 C3 108.6 3 214.2 3 323 C10.50016394 324.75292506 10.50016394 324.75292506 17.76721191 325.23377991 C19.34391411 325.23573616 19.34391411 325.23573616 20.95246887 325.23773193 C22.63598701 325.22458954 22.63598701 325.22458954 24.35351562 325.21118164 C25.55956955 325.2098674 26.76562347 325.20855316 28.00822449 325.2071991 C31.29132512 325.20184865 34.57424614 325.18769694 37.8572979 325.16985631 C41.30837411 325.15351838 44.7594634 325.14950766 48.21057129 325.14439392 C54.74445663 325.13304798 61.27827231 325.11234911 67.81211901 325.08749622 C79.50475645 325.04309081 91.19741751 325.00988167 102.89011717 324.98725218 C106.31811014 324.98025634 109.7460598 324.97070442 113.17402649 324.95540047 C116.99817886 324.93868026 120.82230878 324.92793639 124.64648438 324.91821289 C126.33000252 324.90810684 126.33000252 324.90810684 128.04753113 324.89779663 C134.1098151 324.88905528 140.0086156 325.02016042 146 326 C146.33 326.66 146.66 327.32 147 328 C98.49 328 49.98 328 0 328 C0 219.76 0 111.52 0 0 Z " fill="#718BD4" transform="translate(108,100)"/>
<path d="M0 0 C2.03089967 0.00850359 4.05897838 -0.02023887 6.08959961 -0.05200195 C7.37157227 -0.05135742 8.65354492 -0.05071289 9.97436523 -0.05004883 C11.14926514 -0.05190186 12.32416504 -0.05375488 13.53466797 -0.05566406 C16.60327148 0.44604492 16.60327148 0.44604492 18.98657227 2.07861328 C21.09070836 5.15982858 21.10547607 7.10565688 21.09936523 10.82104492 C21.10000977 12.05338867 21.1006543 13.28573242 21.10131836 14.55541992 C21.08133789 15.83932617 21.06135742 17.12323242 21.04077148 18.44604492 C21.04786133 19.72995117 21.05495117 21.01385742 21.06225586 22.33666992 C20.99929361 31.59696368 20.99929361 31.59696368 19.49804688 34.81567383 C16.68318463 37.23773929 14.52168071 36.93165131 10.85327148 36.90698242 C10.19875 36.90606598 9.54422852 36.90514954 8.86987305 36.90420532 C7.48796321 36.89817141 6.10606632 36.88243114 4.72436523 36.85766602 C2.61059316 36.82117133 0.49857562 36.81664657 -1.61547852 36.81713867 C-11.95355344 36.74149497 -11.95355344 36.74149497 -15.39672852 34.44604492 C-15.78491211 31.42089844 -15.78491211 31.42089844 -15.79516602 27.57495117 C-15.79803619 26.8968187 -15.80090637 26.21868622 -15.80386353 25.52000427 C-15.80590573 24.08510504 -15.80036479 22.65017807 -15.7878418 21.21533203 C-15.77181301 19.02011663 -15.78767006 16.82674913 -15.80688477 14.6315918 C-15.80490187 13.23770753 -15.80105724 11.8438244 -15.79516602 10.44995117 C-15.79009033 8.54451538 -15.79009033 8.54451538 -15.78491211 6.60058594 C-15.39672852 3.44604492 -15.39672852 3.44604492 -14.27783203 1.53540039 C-10.10076455 -0.88355809 -4.69413813 -0.03007244 0 0 Z " fill="#0B0B0E" transform="translate(171.396728515625,312.553955078125)"/>
<path d="M0 0 C2.03300423 0.00853486 4.06321873 -0.02030584 6.09594727 -0.05200195 C7.37663086 -0.05135742 8.65731445 -0.05071289 9.97680664 -0.05004883 C11.15057861 -0.05190186 12.32435059 -0.05375488 13.53369141 -0.05566406 C16.47290039 0.44604492 16.47290039 0.44604492 18.35400391 2.07861328 C19.79669655 5.13115323 19.86120207 7.44629852 19.87133789 10.82104492 C19.87713867 12.66956055 19.87713867 12.66956055 19.88305664 14.55541992 C19.87145508 15.83932617 19.85985352 17.12323242 19.84790039 18.44604492 C19.85950195 19.72995117 19.87110352 21.01385742 19.88305664 22.33666992 C19.87918945 23.56901367 19.87532227 24.80135742 19.87133789 26.07104492 C19.8679541 27.19768555 19.86457031 28.32432617 19.86108398 29.48510742 C19.42074401 32.84387674 19.04519399 34.23228337 16.47290039 36.44604492 C13.42602539 36.94775391 13.42602539 36.94775391 9.72290039 36.94213867 C9.06837891 36.9435939 8.41385742 36.94504913 7.73950195 36.94654846 C6.35762067 36.94489072 4.97572069 36.93334285 3.59399414 36.91259766 C1.47991447 36.88364099 -0.63165697 36.89198784 -2.74584961 36.9050293 C-4.08961178 36.89879149 -5.43336605 36.8904002 -6.77709961 36.87963867 C-7.99913086 36.86989014 -9.22116211 36.8601416 -10.48022461 36.85009766 C-13.52709961 36.44604492 -13.52709961 36.44604492 -15.421875 35.34082031 C-17.09827443 32.46683401 -16.9343161 30.00257629 -16.96069336 26.69604492 C-16.96593521 26.04152344 -16.97117706 25.38700195 -16.97657776 24.71264648 C-16.98299224 23.33082496 -16.98166827 21.94894879 -16.97314453 20.56713867 C-16.9646271 18.45286968 -16.99340692 16.34129738 -17.02514648 14.22729492 C-17.02675849 12.88354573 -17.02618098 11.53979176 -17.02319336 10.19604492 C-17.02504639 8.97401367 -17.02689941 7.75198242 -17.02880859 6.49291992 C-16.52709961 3.44604492 -16.52709961 3.44604492 -14.91040039 1.55126953 C-10.23332135 -0.61766479 -5.06684636 -0.03256249 0 0 Z " fill="#0B0B0D" transform="translate(172.527099609375,259.553955078125)"/>
<path d="M0 0 C2.11380425 0.00316292 4.22621221 -0.0203163 6.33984375 -0.0456543 C7.68359199 -0.04792712 9.02734398 -0.04863086 10.37109375 -0.04760742 C11.593125 -0.05058838 12.81515625 -0.05356934 14.07421875 -0.05664062 C17.12109375 0.31567383 17.12109375 0.31567383 19.01806641 1.43017578 C20.66614027 4.247368 20.51022496 6.60124501 20.51953125 9.84692383 C20.52533203 11.7747168 20.52533203 11.7747168 20.53125 13.74145508 C20.52496582 14.40999512 20.51868164 15.07853516 20.51220703 15.76733398 C20.49614729 17.80886713 20.51206046 19.8484209 20.53125 21.88989258 C20.52738281 23.17508789 20.52351563 24.4602832 20.51953125 25.78442383 C20.51614746 26.96456055 20.51276367 28.14469727 20.50927734 29.3605957 C20.12109375 32.31567383 20.12109375 32.31567383 19.03393555 34.20117188 C16.08176769 35.92122883 13.50799871 35.6869122 10.1171875 35.67895508 C9.0985537 35.67970284 9.0985537 35.67970284 8.05934143 35.6804657 C6.62620105 35.67812836 5.19305632 35.66841969 3.76000977 35.65185547 C1.56294206 35.6282206 -0.63291525 35.6313015 -2.83007812 35.63793945 C-13.59975992 35.59482016 -13.59975992 35.59482016 -15.87890625 33.31567383 C-16.27797015 28.89723834 -16.20793982 24.46447543 -16.19458008 20.0300293 C-16.19141813 17.82396149 -16.21488201 15.61923214 -16.24023438 13.41333008 C-16.24250713 12.01619636 -16.24321097 10.61905902 -16.2421875 9.22192383 C-16.24516846 7.94639648 -16.24814941 6.67086914 -16.2512207 5.35668945 C-16.12835693 4.3531543 -16.00549316 3.34961914 -15.87890625 2.31567383 C-11.09203357 -0.87557462 -5.59719384 -0.01758895 0 0 Z " fill="#07080C" transform="translate(171.87890625,206.684326171875)"/>
<path d="M0 0 C5.05078428 3.40634289 8.61262451 7.02468943 10.6875 12.8125 C11.48817027 18.62224159 11.1188471 23.85876211 8.12890625 28.984375 C4.54115721 33.53469086 0.44562949 36.30871551 -5.28515625 37.35546875 C-11.1767785 37.63105664 -15.84050037 36.9931062 -20.62109375 33.41015625 C-25.50872094 28.79343681 -27.61174724 24.65648147 -28 17.875 C-27.70450981 11.55789882 -25.75200892 7.29943957 -21.3125 2.8125 C-15.03084931 -2.14033996 -7.40077238 -2.65310708 0 0 Z " fill="#D75F6E" transform="translate(242.3125,146.1875)"/>
<path d="M0 0 C2.25 0.8125 2.25 0.8125 3.25 1.8125 C3.70768745 5.1192918 3.48978207 6.46725822 1.5625 9.2421875 C0.4178125 10.45261719 0.4178125 10.45261719 -0.75 11.6875 C-1.5646875 12.55117188 -2.379375 13.41484375 -3.21875 14.3046875 C-6.10550365 17.16471195 -9.0854628 19.85129469 -12.21875 22.4375 C-13.87389654 23.75470755 -13.87389654 23.75470755 -14.75 25.8125 C-15.41 25.8125 -16.07 25.8125 -16.75 25.8125 C-16.75 26.4725 -16.75 27.1325 -16.75 27.8125 C-18.40002828 29.16636936 -20.0674387 30.49928142 -21.75 31.8125 C-22.245 32.8025 -22.245 32.8025 -22.75 33.8125 C-23.41 33.8125 -24.07 33.8125 -24.75 33.8125 C-24.75 34.4725 -24.75 35.1325 -24.75 35.8125 C-26.40002828 37.16636936 -28.0674387 38.49928142 -29.75 39.8125 C-30.245 40.8025 -30.245 40.8025 -30.75 41.8125 C-31.41 41.8125 -32.07 41.8125 -32.75 41.8125 C-32.75 42.4725 -32.75 43.1325 -32.75 43.8125 C-34.40002828 45.16636936 -36.0674387 46.49928142 -37.75 47.8125 C-38.245 48.8025 -38.245 48.8025 -38.75 49.8125 C-39.41 49.8125 -40.07 49.8125 -40.75 49.8125 C-40.75 50.4725 -40.75 51.1325 -40.75 51.8125 C-42.40002828 53.16636936 -44.0674387 54.49928142 -45.75 55.8125 C-46.245 56.8025 -46.245 56.8025 -46.75 57.8125 C-47.41 57.8125 -48.07 57.8125 -48.75 57.8125 C-48.75 58.4725 -48.75 59.1325 -48.75 59.8125 C-50.40002828 61.16636936 -52.0674387 62.49928142 -53.75 63.8125 C-54.08 64.4725 -54.41 65.1325 -54.75 65.8125 C-55.41 65.8125 -56.07 65.8125 -56.75 65.8125 C-56.75 66.4725 -56.75 67.1325 -56.75 67.8125 C-59.85180664 68.64868164 -59.85180664 68.64868164 -63.75 68.8125 C-66.27980876 67.08059731 -68.03848293 65.60406216 -70.12109375 63.43359375 C-70.68828629 62.86931168 -71.25547882 62.3050296 -71.83985901 61.72364807 C-73.03177705 60.52841683 -74.21383825 59.32328501 -75.38647461 58.10913086 C-77.18200329 56.25567405 -79.01194547 54.44244317 -80.84960938 52.63085938 C-82.00484389 51.46314905 -83.15791578 50.29329441 -84.30859375 49.12109375 C-84.85535263 48.58020615 -85.40211151 48.03931854 -85.96543884 47.48204041 C-88.52881066 44.78807502 -89.70067521 43.22070823 -90.15258789 39.48071289 C-89.75 36.8125 -89.75 36.8125 -88.75 35.8125 C-84.93086299 35.32497957 -83.28060285 35.42043186 -80.14111328 37.74023438 C-78.86856689 39.05991211 -78.86856689 39.05991211 -77.5703125 40.40625 C-77.11268524 40.87236694 -76.65505798 41.33848389 -76.18356323 41.81872559 C-74.73262463 43.30311227 -73.30399288 44.80700548 -71.875 46.3125 C-70.89202843 47.32558236 -69.90766675 48.33731789 -68.921875 49.34765625 C-66.51495412 51.82054356 -64.12759632 54.3113675 -61.75 56.8125 C-58.68512136 55.36276251 -56.91950625 54.11065475 -54.8125 51.4375 C-52.36332942 48.45911165 -49.81523286 46.17037143 -46.75 43.8125 C-43.88833918 41.09759102 -41.27553788 38.27289445 -38.75 35.25 C-36.31804854 32.37022117 -33.74445392 30.11592609 -30.75 27.8125 C-27.88833918 25.09759102 -25.27553788 22.27289445 -22.75 19.25 C-20.3249903 16.36991136 -17.71733878 14.13825202 -14.75 11.8125 C-14.193125 11.07 -13.63625 10.3275 -13.0625 9.5625 C-12.629375 8.985 -12.19625 8.4075 -11.75 7.8125 C-11.09 7.8125 -10.43 7.8125 -9.75 7.8125 C-9.523125 7.235 -9.29625 6.6575 -9.0625 6.0625 C-6.86694781 2.29869624 -4.52927091 -0.30881393 0 0 Z " fill="#08090B" transform="translate(369.75,345.1875)"/>
<path d="M0 0 C1.28715408 -0.00639748 1.28715408 -0.00639748 2.60031128 -0.01292419 C3.54375397 -0.01247101 4.48719666 -0.01201782 5.45922852 -0.0115509 C6.45117218 -0.01490952 7.44311584 -0.01826813 8.46511841 -0.02172852 C11.75613647 -0.03125638 15.04710376 -0.03318244 18.33813477 -0.03425598 C20.61735048 -0.03746689 22.89656598 -0.04083083 25.17578125 -0.04434204 C29.95744302 -0.05033763 34.73908669 -0.05218146 39.52075195 -0.05158997 C45.66139909 -0.05148823 51.80193089 -0.06515049 57.94255066 -0.08236217 C62.65043678 -0.0934548 67.35829477 -0.09551003 72.06619263 -0.09498024 C74.33090615 -0.09616411 76.59562032 -0.1006085 78.86032104 -0.10831261 C82.02097775 -0.11805894 85.18138063 -0.11525591 88.34204102 -0.10920715 C89.75720505 -0.11763641 89.75720505 -0.11763641 91.20095825 -0.12623596 C92.05906097 -0.12204147 92.9171637 -0.11784698 93.80126953 -0.11352539 C94.54901138 -0.11407016 95.29675323 -0.11461493 96.06715393 -0.1151762 C97.90063477 0.13371277 97.90063477 0.13371277 99.90063477 2.13371277 C100.21313477 5.13371277 100.21313477 5.13371277 99.90063477 8.13371277 C96.82400609 10.18479855 96.1961123 10.38475759 92.72570801 10.39440918 C91.87608994 10.40149399 91.02647186 10.4085788 90.15110779 10.4158783 C89.22218216 10.41340088 88.29325653 10.41092346 87.33618164 10.40837097 C86.35545181 10.4134819 85.37472198 10.41859283 84.36427307 10.42385864 C81.11591525 10.43778192 77.86776891 10.43679597 74.61938477 10.43449402 C72.36641358 10.4383791 70.11344313 10.44271337 67.86047363 10.44747925 C63.13604356 10.4549471 58.41168822 10.45464582 53.68725586 10.4493866 C47.62401429 10.44358757 41.56107776 10.46053089 35.49788666 10.48373127 C30.8448507 10.4984401 26.19188871 10.49934426 21.53883362 10.49622154 C19.30285538 10.49673607 17.06687314 10.50199829 14.83091736 10.51203346 C11.70877054 10.52432689 8.58722461 10.51764905 5.46508789 10.50602722 C4.07169945 10.51749283 4.07169945 10.51749283 2.65016174 10.52919006 C1.80054367 10.52217575 0.9509256 10.51516144 0.07556152 10.50793457 C-0.66258537 10.50810231 -1.40073227 10.50827005 -2.16124725 10.50844288 C-4.68109053 10.02123768 -5.5926248 9.18623111 -7.09936523 7.13371277 C-6.91186523 4.00871277 -6.91186523 4.00871277 -6.09936523 1.13371277 C-3.81242607 -0.00975681 -2.54146069 0.00569594 0 0 Z " fill="#131415" transform="translate(211.099365234375,226.8662872314453)"/>
<path d="M0 0 C0.85803223 -0.00708481 1.71606445 -0.01416962 2.60009766 -0.02146912 C3.53837402 -0.0189917 4.47665039 -0.01651428 5.44335938 -0.01396179 C6.43384277 -0.01907272 7.42432617 -0.02418365 8.44482422 -0.02944946 C11.72564704 -0.0433733 15.00626048 -0.04238675 18.28710938 -0.04008484 C20.5625008 -0.04396989 22.8378915 -0.04830416 25.11328125 -0.05307007 C29.88478953 -0.06053804 34.65622383 -0.06023655 39.42773438 -0.05497742 C45.55150893 -0.04917839 51.67498146 -0.06612166 57.79870605 -0.08932209 C62.49806498 -0.10403066 67.19735065 -0.10493512 71.89672852 -0.10181236 C74.15503539 -0.1023269 76.41334622 -0.10758938 78.67163086 -0.11762428 C81.8249087 -0.12991718 84.97759154 -0.12324017 88.13085938 -0.11161804 C89.06913574 -0.11926178 90.00741211 -0.12690552 90.97412109 -0.13478088 C91.83215332 -0.12776657 92.69018555 -0.12075226 93.57421875 -0.11352539 C94.69250061 -0.113777 94.69250061 -0.113777 95.83337402 -0.1140337 C98.35124605 0.36889888 99.26735712 1.22521302 100.78710938 3.26069641 C100.59960938 5.88569641 100.59960938 5.88569641 99.78710938 8.26069641 C97.49104872 9.40872674 96.20267676 9.38874349 93.64978027 9.39440918 C92.35000496 9.40080666 92.35000496 9.40080666 91.02397156 9.40733337 C90.07117813 9.40688019 89.1183847 9.406427 88.13671875 9.40596008 C87.13502151 9.4093187 86.13332428 9.41267731 85.10127258 9.4161377 C81.77778903 9.4256658 78.45435575 9.42759163 75.13085938 9.42866516 C72.82922342 9.43187605 70.52758767 9.43524 68.22595215 9.43875122 C63.39721198 9.44474688 58.56848972 9.44659063 53.73974609 9.44599915 C47.53856526 9.44589741 41.33749864 9.45955964 35.13634491 9.47677135 C30.3821357 9.48786386 25.62795435 9.48991922 20.87373352 9.48938942 C18.58669134 9.49057331 16.29964853 9.49501781 14.01261902 9.50272179 C10.82083011 9.51246785 7.62929255 9.50966519 4.4375 9.50361633 C3.48470657 9.50923584 2.53191315 9.51485535 1.55024719 9.52064514 C0.25047188 9.51435341 0.25047188 9.51435341 -1.07556152 9.50793457 C-1.83067772 9.50847934 -2.58579391 9.50902411 -3.36379242 9.50958538 C-5.21289062 9.26069641 -5.21289062 9.26069641 -7.21289062 7.26069641 C-7.52539062 4.76069641 -7.52539062 4.76069641 -7.21289062 2.26069641 C-4.12677808 0.20328805 -3.48616818 0.00959952 0 0 Z " fill="#020303" transform="translate(211.212890625,265.7393035888672)"/>
<path d="M0 0 C0.86507172 -0.00708481 1.73014343 -0.01416962 2.62142944 -0.02146912 C4.04826302 -0.01775299 4.04826302 -0.01775299 5.50392151 -0.01396179 C6.50401245 -0.01907272 7.50410339 -0.02418365 8.53450012 -0.02944946 C11.85322489 -0.04339375 15.17174312 -0.04238505 18.49049377 -0.04008484 C20.78973468 -0.04396912 23.08897487 -0.04830323 25.38821411 -0.05307007 C30.21277693 -0.06054271 35.03726659 -0.06023345 39.86183167 -0.05497742 C46.05401496 -0.04918159 52.24589927 -0.06611169 58.4380331 -0.08932209 C63.18800619 -0.10403167 67.93790681 -0.10493491 72.68789864 -0.10181236 C74.97132522 -0.10232698 77.25475572 -0.10759084 79.53816032 -0.11762428 C82.72746761 -0.12991744 85.91618662 -0.12323968 89.10548401 -0.11161804 C90.52928123 -0.12308365 90.52928123 -0.12308365 91.98184204 -0.13478088 C93.28367935 -0.12425941 93.28367935 -0.12425941 94.61181641 -0.11352539 C95.36601081 -0.11369313 96.12020521 -0.11386087 96.89725399 -0.1140337 C99.41489164 0.364346 100.33354784 1.24312715 101.86940002 3.26069641 C101.59903856 6.23467257 101.01493976 7.11515667 98.86940002 9.26069641 C97.0387125 9.51237869 97.0387125 9.51237869 94.77676392 9.5146637 C93.92010635 9.52030334 93.06344879 9.52594299 92.18083191 9.53175354 C91.23896027 9.52770508 90.29708862 9.52365662 89.32667542 9.51948547 C88.33633804 9.52299011 87.34600067 9.52649475 86.32565308 9.53010559 C83.03938364 9.53893572 79.75332805 9.53306875 76.46705627 9.52632141 C74.19023599 9.5276678 71.91341598 9.52960811 69.63659668 9.53211975 C64.85910817 9.53507284 60.08169433 9.5307678 55.30421448 9.5214386 C49.17262094 9.51005047 43.0412026 9.51659839 36.90961552 9.52858353 C32.20597 9.53580262 27.50236616 9.53351384 22.79871941 9.52832794 C20.53762733 9.52699125 18.2765315 9.52863984 16.0154438 9.53328705 C12.85736663 9.53835232 9.69957501 9.53064157 6.54151917 9.51948547 C5.60167175 9.52353394 4.66182434 9.5275824 3.6934967 9.53175354 C2.83401932 9.52611389 1.97454193 9.52047424 1.08901978 9.5146637 C0.34219972 9.51390965 -0.40462034 9.51315559 -1.17407131 9.51237869 C-3.13059998 9.26069641 -3.13059998 9.26069641 -6.13059998 7.26069641 C-6.44309998 4.76069641 -6.44309998 4.76069641 -6.13059998 2.26069641 C-3.74263961 -0.12726396 -3.24940089 0.00884909 0 0 Z " fill="#010102" transform="translate(210.13059997558594,212.7393035888672)"/>
<path d="M0 0 C1.31250229 -0.00422974 1.31250229 -0.00422974 2.65151978 -0.00854492 C4.1024855 -0.00550858 4.1024855 -0.00550858 5.58276367 -0.00241089 C6.59567474 -0.00416321 7.60858582 -0.00591553 8.65219116 -0.00772095 C12.01838874 -0.01214158 15.38453426 -0.00920073 18.75073242 -0.00582886 C21.07861338 -0.00650184 23.40649428 -0.00747181 25.734375 -0.00872803 C30.62036811 -0.01020529 35.50634299 -0.00804954 40.39233398 -0.00338745 C46.67095898 0.00230985 52.94954124 -0.00096901 59.22816467 -0.00695992 C64.03723475 -0.01056477 68.84629461 -0.00942729 73.65536499 -0.00683212 C75.97114059 -0.00616264 78.28691711 -0.006992 80.60269165 -0.00931168 C83.83305334 -0.01183696 87.06334475 -0.00799935 90.29370117 -0.00241089 C91.26101166 -0.00443512 92.22832214 -0.00645935 93.22494507 -0.00854492 C94.09994659 -0.0057251 94.97494812 -0.00290527 95.87646484 0 C96.64117599 0.00037703 97.40588715 0.00075405 98.19377136 0.0011425 C99.93823242 0.12698364 99.93823242 0.12698364 100.93823242 1.12698364 C101.18823242 4.06448364 101.18823242 4.06448364 100.93823242 7.12698364 C97.86160375 9.17806942 97.23370995 9.37802847 93.76330566 9.38768005 C92.91368759 9.39476486 92.06406952 9.40184967 91.18870544 9.40914917 C90.25977982 9.40667175 89.33085419 9.40419434 88.3737793 9.40164185 C87.39304947 9.40675278 86.41231964 9.41186371 85.40187073 9.41712952 C82.15351291 9.43105279 78.90536657 9.43006685 75.65698242 9.42776489 C73.40401124 9.43164997 71.15104078 9.43598425 68.89807129 9.44075012 C64.17364122 9.44821798 59.44928587 9.44791669 54.72485352 9.44265747 C48.66161195 9.43685844 42.59867542 9.45380176 36.53548431 9.47700214 C31.88244835 9.49171097 27.22948636 9.49261514 22.57643127 9.48949242 C20.34045304 9.49000694 18.10447079 9.49526917 15.86851501 9.50530434 C12.74636819 9.51759776 9.62482226 9.51091993 6.50268555 9.4992981 C5.1092971 9.5107637 5.1092971 9.5107637 3.6877594 9.52246094 C2.83814133 9.51544662 1.98852325 9.50843231 1.11315918 9.50120544 C0.37501228 9.50137319 -0.36313461 9.50154093 -1.1236496 9.50171375 C-3.63033789 9.01705204 -4.54955833 8.15490298 -6.06176758 6.12698364 C-5.57892515 1.05713812 -4.9569027 0.0024439 0 0 Z " fill="#070809" transform="translate(210.061767578125,280.8730163574219)"/>
<path d="M0 0 C16.5 0 33 0 50 0 C50 5.94 50 11.88 50 18 C33.5 18 17 18 0 18 C0 12.06 0 6.12 0 0 Z " fill="#5269F1" transform="translate(209,55)"/>
<path d="M0 0 C2.97 0 5.94 0 9 0 C9 0.33 9 0.66 9 1 C6.69 1.33 4.38 1.66 2 2 C2.33 65.69 2.66 129.38 3 195 C2.01 195 1.02 195 0 195 C0 130.65 0 66.3 0 0 Z " fill="#6277B2" transform="translate(346,101)"/>
<path d="M0 0 C3 0.125 3 0.125 4 1.125 C4.07179964 2.64428038 4.08392007 4.16667482 4.0625 5.6875 C4.05347656 6.51378906 4.04445312 7.34007812 4.03515625 8.19140625 C4.02355469 8.82949219 4.01195312 9.46757812 4 10.125 C4.63808594 10.11339844 5.27617187 10.10179687 5.93359375 10.08984375 C6.75988281 10.08082031 7.58617187 10.07179687 8.4375 10.0625 C9.26121094 10.05089844 10.08492187 10.03929687 10.93359375 10.02734375 C13 10.125 13 10.125 14 11.125 C14.1875 14.0625 14.1875 14.0625 14 17.125 C12 19.125 12 19.125 10.0546875 19.3203125 C8.03645833 19.25520833 6.01822917 19.19010417 4 19.125 C4.020625 20.424375 4.04125 21.72375 4.0625 23.0625 C4.08399454 24.41665633 4.07148199 25.77256083 4 27.125 C3 28.125 3 28.125 0 28.25 C-3 28.125 -3 28.125 -4 27.125 C-4.14115161 24.45441149 -4.04247107 21.80067762 -4 19.125 C-6.97 18.795 -9.94 18.465 -13 18.125 C-14.125 15.8125 -14.125 15.8125 -15 13.125 C-14.34 12.135 -13.68 11.145 -13 10.125 C-10.8359375 9.83203125 -10.8359375 9.83203125 -8.375 9.9375 C-7.55773437 9.96457031 -6.74046875 9.99164063 -5.8984375 10.01953125 C-5.27195313 10.05433594 -4.64546875 10.08914062 -4 10.125 C-4.01160156 9.48691406 -4.02320313 8.84882813 -4.03515625 8.19140625 C-4.04417969 7.36511719 -4.05320313 6.53882813 -4.0625 5.6875 C-4.07410156 4.86378906 -4.08570313 4.04007813 -4.09765625 3.19140625 C-3.94031352 -0.13796585 -3.39108872 0.14129536 0 0 Z " fill="#0C0303" transform="translate(234,149.875)"/>
<path d="M0 0 C3.97915159 -0.02886984 7.95827653 -0.04675406 11.9375 -0.0625 C13.07380859 -0.07087891 14.21011719 -0.07925781 15.38085938 -0.08789062 C16.46044922 -0.09111328 17.54003906 -0.09433594 18.65234375 -0.09765625 C20.15269165 -0.10551147 20.15269165 -0.10551147 21.68334961 -0.11352539 C24 0 24 0 25 1 C25.08767112 3.07262076 25.10695873 5.14820294 25.09765625 7.22265625 C25.09443359 8.48271484 25.09121094 9.74277344 25.08789062 11.04101562 C25.07953403 12.38151109 25.07106907 13.72200588 25.0625 15.0625 C25.0574866 16.40689942 25.05292342 17.7513006 25.04882812 19.09570312 C25.03699488 22.39717941 25.02050971 25.69856803 25 29 C20.13040015 25.05218771 15.93937099 20.88064666 11.9375 16.0625 C11.44701172 15.48048828 10.95652344 14.89847656 10.45117188 14.29882812 C9.46659634 13.13053416 8.48526341 11.95949917 7.50732422 10.78564453 C6.45098809 9.53426091 5.37817466 8.29668796 4.29345703 7.06982422 C3.74415527 6.44736816 3.19485352 5.82491211 2.62890625 5.18359375 C2.12560791 4.6208374 1.62230957 4.05808105 1.10375977 3.47827148 C0 2 0 2 0 0 Z " fill="#93B1F6" transform="translate(135,369)"/>
<path d="M0 0 C37.62 0 75.24 0 114 0 C114 11.22 114 22.44 114 34 C76.38 34 38.76 34 0 34 C0 22.78 0 11.56 0 0 Z M2 2 C1.6899377 6.61800375 1.7215564 11.24787007 1.6875 15.875 C1.65849609 17.18082031 1.62949219 18.48664063 1.59960938 19.83203125 C1.59123047 21.08113281 1.58285156 22.33023438 1.57421875 23.6171875 C1.55963623 24.76815918 1.54505371 25.91913086 1.5300293 27.10498047 C1.70956596 30.0604371 1.70956596 30.0604371 3.75017166 31.658391 C6.26524801 33.15817167 7.56880655 33.37116457 10.46722412 33.36076355 C11.35620895 33.36488754 12.24519379 33.36901154 13.16111755 33.3732605 C14.61228722 33.35708176 14.61228722 33.35708176 16.09277344 33.34057617 C17.11748245 33.34101425 18.14219147 33.34145233 19.19795227 33.34190369 C22.58528693 33.33981351 25.97212679 33.3164711 29.359375 33.29296875 C31.70778127 33.28737362 34.05619103 33.28310313 36.40460205 33.28010559 C42.58605616 33.26865032 48.76729886 33.239177 54.94866943 33.20599365 C61.25611511 33.17530763 67.56359494 33.16160338 73.87109375 33.14648438 C86.24748873 33.11430818 98.62372678 33.06310337 111 33 C113.1282728 28.74345439 112.40794231 23.20465968 112.55761719 18.51391602 C112.62485741 16.44189386 112.70256549 14.37044364 112.78125 12.29882812 C112.82507813 11.00267578 112.86890625 9.70652344 112.9140625 8.37109375 C112.9548291 7.17411865 112.9955957 5.97714355 113.03759766 4.74389648 C113.3201723 2.08772152 113.3201723 2.08772152 112 1 C110.58554008 0.90233604 109.16624054 0.87368323 107.74841309 0.87301636 C106.37280464 0.86878662 106.37280464 0.86878662 104.96940613 0.86447144 C103.95534195 0.86649567 102.94127777 0.8685199 101.89648438 0.87060547 C100.30396599 0.86797699 100.30396599 0.86797699 98.67927551 0.86529541 C95.15075065 0.86087452 91.62227543 0.86381572 88.09375 0.8671875 C85.65376781 0.86651453 83.21378568 0.86554456 80.77380371 0.86428833 C75.65241866 0.86281103 70.53105101 0.86496693 65.40966797 0.86962891 C58.82837285 0.8753262 52.24711851 0.87204737 45.66582489 0.86605644 C40.62513926 0.86245168 35.58446338 0.86358902 30.54377747 0.86618423 C28.11635839 0.86685374 25.68893844 0.86602427 23.26152039 0.86370468 C19.87549477 0.86117955 16.48953621 0.86501678 13.10351562 0.87060547 C12.08945145 0.86858124 11.07538727 0.86655701 10.03059387 0.86447144 C9.11352158 0.86729126 8.19644928 0.87011108 7.25158691 0.87301636 C6.45000404 0.87339338 5.64842117 0.87377041 4.82254791 0.87415886 C2.98015831 0.80093511 2.98015831 0.80093511 2 2 Z " fill="#7C96E0" transform="translate(177,82)"/>
<path d="M0 0 C5.94 0 11.88 0 18 0 C18 5.94 18 11.88 18 18 C12.06 18 6.12 18 0 18 C0 12.06 0 6.12 0 0 Z " fill="#90B1F8" transform="translate(165,322)"/>
<path d="M0 0 C5.94 0 11.88 0 18 0 C18 5.94 18 11.88 18 18 C12.06 18 6.12 18 0 18 C0 12.06 0 6.12 0 0 Z " fill="#8CA9E9" transform="translate(165,269)"/>
<path d="M0 0 C17.16 0.33 34.32 0.66 52 1 C50 6 50 6 49 7 C47.50706674 7.11203229 46.00899883 7.15672163 44.51196289 7.17358398 C43.55749771 7.18707382 42.60303253 7.20056366 41.61964417 7.21446228 C40.58113815 7.22490067 39.54263214 7.23533905 38.47265625 7.24609375 C36.29752193 7.27902667 34.12239182 7.31223841 31.94726562 7.34570312 C28.49945937 7.39319628 25.05167086 7.43762307 21.60375977 7.47680664 C18.28904239 7.51638889 14.97468017 7.56796402 11.66015625 7.62109375 C10.62367447 7.6295079 9.58719269 7.63792206 8.51930237 7.64659119 C7.56168503 7.66323318 6.60406769 7.67987518 5.61743164 7.69702148 C4.77217422 7.70732895 3.92691681 7.71763641 3.05604553 7.72825623 C0.77707415 7.81735303 0.77707415 7.81735303 -1 10 C-1 9.34 -1 8.68 -1 8 C-1.66 8 -2.32 8 -3 8 C-1.125 2.25 -1.125 2.25 0 0 Z " fill="#D4D5D9" transform="translate(205,327)"/>
<path d="M0 0 C5.94 0 11.88 0 18 0 C18 5.61 18 11.22 18 17 C12.06 17 6.12 17 0 17 C0 11.39 0 5.78 0 0 Z " fill="#8DB1FC" transform="translate(165,216)"/>
<path d="M0 0 C3.96 0 7.92 0 12 0 C12 65.67 12 131.34 12 199 C4.125 197.875 4.125 197.875 1 196 C4.59099336 194.75696384 7.31668957 195.31883985 11 196 C10.91621618 171.00079655 10.82112611 146.00165842 10.71247292 121.00255013 C10.66229185 109.39575654 10.61584968 97.78897021 10.578125 86.18212891 C10.54524542 76.06888188 10.50543677 65.9556903 10.45720994 55.84250438 C10.4319047 50.48469766 10.41013543 45.12692791 10.39665604 39.7690773 C10.38387207 34.73108371 10.3618577 29.69321665 10.33261681 24.65529251 C10.32351223 22.80170556 10.31784414 20.94809822 10.31578636 19.09449005 C10.31248404 16.57270502 10.29706247 14.05128322 10.2784729 11.52957153 C10.28040763 10.78833514 10.28234237 10.04709875 10.28433573 9.28340065 C10.36112543 5.18996009 10.36112543 5.18996009 8 2 C5.34462628 1.43479997 2.70855287 1.26211802 0 1 C0 0.67 0 0.34 0 0 Z " fill="#7B93D2" transform="translate(347,100)"/>
<path d="M0 0 C2 1 4 2 6 3 C6 3.66 6 4.32 6 5 C6.94875 5.309375 7.8975 5.61875 8.875 5.9375 C12 7 12 7 14 8 C16.62431149 8.09305156 19.22184796 8.12579615 21.84619141 8.11352539 C22.65602982 8.11367142 23.46586823 8.11381744 24.30024719 8.1139679 C26.98404596 8.11326977 29.66777581 8.10548204 32.3515625 8.09765625 C34.20958417 8.09579171 36.06760633 8.09436798 37.92562866 8.09336853 C42.82142488 8.08954615 47.71719155 8.07971823 52.61297607 8.06866455 C57.60656331 8.05844444 62.60015532 8.05386962 67.59375 8.04882812 C77.39584634 8.03809573 87.19792071 8.02102264 97 8 C99.0670948 11.91717176 100.3950743 14.52249131 100 19 C97.81715496 16.34262343 96.72366315 14.34430737 96 11 C94.40053276 11.01332367 94.40053276 11.01332367 92.76875305 11.0269165 C82.71924357 11.10800708 72.66980047 11.16796771 62.62003803 11.20724869 C57.45334041 11.22812241 52.28690693 11.25643634 47.12036133 11.30175781 C42.13422741 11.34522292 37.14834755 11.36913873 32.1620388 11.37950897 C30.2598184 11.38689913 28.35761188 11.4013304 26.45549965 11.42292023 C23.79074699 11.45196313 21.1270437 11.45595565 18.4621582 11.45410156 C17.2828775 11.47567322 17.2828775 11.47567322 16.07977295 11.49768066 C11.07000871 11.45997042 8.52662769 10.56367237 5 7 C3.15381556 4.75722779 1.62609776 2.41591667 0 0 Z " fill="#0F1835" transform="translate(153,404)"/>
<path d="M0 0 C16.5 0 33 0 50 0 C50 5.94 50 11.88 50 18 C33.5 18 17 18 0 18 C0 12.06 0 6.12 0 0 Z M2 2 C1.97314588 4.31243792 1.95367159 6.6249627 1.9375 8.9375 C1.92589844 10.22527344 1.91429687 11.51304688 1.90234375 12.83984375 C1.63467451 15.86298403 1.63467451 15.86298403 3 17 C4.44289787 17.09295815 5.89029785 17.11746513 7.33618164 17.11352539 C8.2570607 17.11344986 9.17793976 17.11337433 10.12672424 17.11329651 C11.62827309 17.10555458 11.62827309 17.10555458 13.16015625 17.09765625 C14.17975937 17.0962413 15.19936249 17.09482635 16.24986267 17.09336853 C19.52077107 17.08775097 22.79161213 17.0751955 26.0625 17.0625 C28.27408756 17.05748726 30.48567618 17.05292396 32.69726562 17.04882812 C38.13153357 17.03777584 43.56576197 17.02102063 49 17 C49.05406122 15.06280622 49.09282025 13.12518079 49.125 11.1875 C49.14820313 10.10855469 49.17140625 9.02960938 49.1953125 7.91796875 C49.23023717 4.80597132 49.23023717 4.80597132 47 2 C44.98662635 1.56338374 44.98662635 1.56338374 42.64208984 1.65942383 C41.74130707 1.65965042 40.84052429 1.65987701 39.91244507 1.66011047 C38.93844757 1.67559433 37.96445007 1.69107819 36.9609375 1.70703125 C35.46694931 1.71339851 35.46694931 1.71339851 33.94277954 1.71989441 C30.75324775 1.7367232 27.56434167 1.77438324 24.375 1.8125 C22.21615494 1.8275414 20.0573 1.84123075 17.8984375 1.85351562 C12.59874388 1.88664033 7.29941663 1.93688104 2 2 Z " fill="#5968BE" transform="translate(209,55)"/>
<path d="M0 0 C1.08166443 -0.00143509 1.08166443 -0.00143509 2.18518066 -0.00289917 C3.70825284 -0.003579 5.23132794 -0.00173843 6.75439453 0.00244141 C9.08502717 0.00779247 11.4154671 0.00248981 13.74609375 -0.00390625 C15.22656293 -0.00324543 16.70703198 -0.0019642 18.1875 0 C18.8844397 -0.00202423 19.58137939 -0.00404846 20.29943848 -0.00613403 C23.34390729 0.00861247 25.68087468 0.16185406 28.59375 1.1328125 C28.59375 2.1228125 28.59375 3.1128125 28.59375 4.1328125 C15.06375 4.1328125 1.53375 4.1328125 -12.40625 4.1328125 C-11.74625 3.8028125 -11.08625 3.4728125 -10.40625 3.1328125 C-10.40625 2.4728125 -10.40625 1.8128125 -10.40625 1.1328125 C-6.87221395 -0.04519952 -3.67643839 -0.01067805 0 0 Z " fill="#F3F2F7" transform="translate(221.40625,328.8671875)"/>
<path d="M0 0 C0.98484375 0.01804687 1.9696875 0.03609375 2.984375 0.0546875 C4.10585937 0.08949219 4.10585937 0.08949219 5.25 0.125 C4.92 1.115 4.59 2.105 4.25 3.125 C5.24 4.115 6.23 5.105 7.25 6.125 C6.92 6.785 6.59 7.445 6.25 8.125 C6.91 8.125 7.57 8.125 8.25 8.125 C8.25 9.115 8.25 10.105 8.25 11.125 C3.92265609 13.35423777 0.96599818 13.04970553 -3.75 12.125 C-3.75 9.815 -3.75 7.505 -3.75 5.125 C-5.73 5.125 -7.71 5.125 -9.75 5.125 C-9.75 4.135 -9.75 3.145 -9.75 2.125 C-6.40060119 0.09941119 -3.88037449 -0.09238987 0 0 Z " fill="#8CB2FC" transform="translate(150.75,370.875)"/>
<path d="M0 0 C5.94 0 11.88 0 18 0 C18 5.61 18 11.22 18 17 C12.06 17 6.12 17 0 17 C0 11.39 0 5.78 0 0 Z M2 2 C1.92755947 4.01964199 1.91622812 6.04167124 1.9375 8.0625 C1.94652344 9.16722656 1.95554688 10.27195313 1.96484375 11.41015625 C1.97644531 12.26480469 1.98804688 13.11945313 2 14 C7.19548425 16.20808081 10.58264203 15.93402724 16 15 C15.67 10.71 15.34 6.42 15 2 C8.20819278 0.23710258 8.20819278 0.23710258 2 2 Z " fill="#99B0E3" transform="translate(165,216)"/>
<path d="M0 0 C-0.33 1.98 -0.66 3.96 -1 6 C-2.32 5.34 -3.64 4.68 -5 4 C-4.67 3.01 -4.34 2.02 -4 1 C-36.67 1 -69.34 1 -103 1 C-103 0.67 -103 0.34 -103 0 C-89.86583981 -0.15363033 -76.73163068 -0.30181216 -63.59733009 -0.4429636 C-57.49909719 -0.50867279 -51.40089759 -0.5762861 -45.30273438 -0.64819336 C-39.42191116 -0.71746873 -33.54105311 -0.78181775 -27.66013718 -0.84269524 C-25.41215418 -0.86684236 -23.1641898 -0.89278963 -20.91624832 -0.92053413 C-17.77704024 -0.95897666 -14.63782799 -0.99112083 -11.49853516 -1.02172852 C-10.56130112 -1.03467453 -9.62406708 -1.04762054 -8.65843201 -1.06095886 C-7.80585312 -1.06799835 -6.95327423 -1.07503784 -6.07485962 -1.08229065 C-5.33189447 -1.09058679 -4.58892933 -1.09888292 -3.82345009 -1.10743046 C-2 -1 -2 -1 0 0 Z " fill="#E8E8EE" transform="translate(311,222)"/>
<path d="M0 0 C3.97915159 -0.02886984 7.95827653 -0.04675406 11.9375 -0.0625 C13.07380859 -0.07087891 14.21011719 -0.07925781 15.38085938 -0.08789062 C16.46044922 -0.09111328 17.54003906 -0.09433594 18.65234375 -0.09765625 C20.15269165 -0.10551147 20.15269165 -0.10551147 21.68334961 -0.11352539 C24 0 24 0 25 1 C25.08767112 3.07262076 25.10695873 5.14820294 25.09765625 7.22265625 C25.09443359 8.48271484 25.09121094 9.74277344 25.08789062 11.04101562 C25.07953403 12.38151109 25.07106907 13.72200588 25.0625 15.0625 C25.0574866 16.40689942 25.05292342 17.7513006 25.04882812 19.09570312 C25.03699488 22.39717941 25.02050971 25.69856803 25 29 C24.67 29 24.34 29 24 29 C24 22.73 24 16.46 24 10 C23.34 10 22.68 10 22 10 C22 9.01 22 8.02 22 7 C21.01 6.34 20.02 5.68 19 5 C19.66 4.01 20.32 3.02 21 2 C18.54006972 2.2813059 16.08259752 2.57452731 13.625 2.875 C12.92632812 2.95363281 12.22765625 3.03226562 11.5078125 3.11328125 C7.30927841 3.55220445 7.30927841 3.55220445 4 6 C2.62437146 4.71034824 1.29233607 3.37310707 0 2 C0 1.34 0 0.68 0 0 Z " fill="#7B92C7" transform="translate(135,369)"/>
<path d="M0 0 C0.66 0 1.32 0 2 0 C2.31974464 4.07674421 2.43803342 6.32029296 0.1875 9.8125 C-2.55566021 12.55566021 -4.13862336 13.92968354 -8.0625 14.25 C-11 14 -11 14 -13 12 C-12.34 12 -11.68 12 -11 12 C-11 11.34 -11 10.68 -11 10 C-9.5 8.375 -9.5 8.375 -8 7 C-8.66 7 -9.32 7 -10 7 C-10 6.34 -10 5.68 -10 5 C-9.36191406 4.72285156 -8.72382813 4.44570312 -8.06640625 4.16015625 C-7.24011719 3.79792969 -6.41382813 3.43570313 -5.5625 3.0625 C-4.73878906 2.70285156 -3.91507813 2.34320313 -3.06640625 1.97265625 C-1.05589883 1.16877677 -1.05589883 1.16877677 0 0 Z " fill="#E75C6D" transform="translate(249,167)"/>
<path d="M0 0 C16.5 0 33 0 50 0 C50 0.66 50 1.32 50 2 C47.07972881 2.97342373 45.37082553 3.09473842 42.3449707 3.02172852 C41.40422195 3.00163223 40.46347321 2.98153595 39.49421692 2.96083069 C37.97534126 2.92027809 37.97534126 2.92027809 36.42578125 2.87890625 C35.38681198 2.85529526 34.34784271 2.83168427 33.27738953 2.80735779 C29.95562067 2.73072211 26.63408498 2.64669703 23.3125 2.5625 C21.06186041 2.50927924 18.8112094 2.45653884 16.56054688 2.40429688 C11.04021999 2.27510707 5.5200666 2.13984824 0 2 C0 1.34 0 0.68 0 0 Z " fill="#0E1539" transform="translate(209,73)"/>
<path d="M0 0 C0.66 0.33 1.32 0.66 2 1 C4.09821215 0.60061233 4.09821215 0.60061233 6 0 C5.67 1.32 5.34 2.64 5 4 C5.99 4.33 6.98 4.66 8 5 C6.02 6.98 4.04 8.96 2 11 C-2.2742558 9.4169423 -4.26531794 6.49431596 -7 3 C-6.21625 2.690625 -5.4325 2.38125 -4.625 2.0625 C-2.07669872 1.07124962 -2.07669872 1.07124962 0 0 Z " fill="#D5D9E4" transform="translate(308,392)"/>
<path d="M0 0 C0.33 0.99 0.66 1.98 1 3 C0.34 3 -0.32 3 -1 3 C-1.33 5.64 -1.66 8.28 -2 11 C-1.67 9.35 -1.34 7.7 -1 6 C-0.360625 5.87625 0.27875 5.7525 0.9375 5.625 C1.618125 5.41875 2.29875 5.2125 3 5 C3.33 4.34 3.66 3.68 4 3 C4.66 3 5.32 3 6 3 C5.67 3.99 5.34 4.98 5 6 C6.65 6.33 8.3 6.66 10 7 C10 4.69 10 2.38 10 0 C10.33 0 10.66 0 11 0 C11 2.64 11 5.28 11 8 C6.545 8.495 6.545 8.495 2 9 C0.92650209 13.29399165 1.20317184 14.19495213 3 18 C2.34 18 1.68 18 1 18 C1 17.34 1 16.68 1 16 C0.34 16.33 -0.32 16.66 -1 17 C-1 18.65 -1 20.3 -1 22 C-4.74755971 17.84488075 -4.48304141 14.31634528 -4.37109375 8.9296875 C-3.8614005 4.90579344 -2.66329192 2.99620341 0 0 Z " fill="#CF6774" transform="translate(219,152)"/>
<path d="M0 0 C5.94 0 11.88 0 18 0 C18 5.94 18 11.88 18 18 C12.06 18 6.12 18 0 18 C0 12.06 0 6.12 0 0 Z M1 2 C0.90091217 3.78940972 0.87029621 5.58285508 0.875 7.375 C0.87242187 8.35210937 0.86984375 9.32921875 0.8671875 10.3359375 C0.88565965 13.10464416 0.88565965 13.10464416 2 16 C4.32595946 17.16297973 5.78723231 17.16600691 8.375 17.1875 C9.14585937 17.20167969 9.91671875 17.21585937 10.7109375 17.23046875 C13.39864818 17.09681235 13.39864818 17.09681235 17 15 C17 10.38 17 5.76 17 1 C14.52076199 0.97314905 12.0418116 0.95323453 9.5625 0.9375 C8.85544922 0.92912109 8.14839844 0.92074219 7.41992188 0.91210938 C3.91996371 0.56702695 3.91996371 0.56702695 1 2 Z " fill="#8194BA" transform="translate(165,322)"/>
<path d="M0 0 C0.66 0 1.32 0 2 0 C2 0.66 2 1.32 2 2 C2.99 1.67 3.98 1.34 5 1 C7.6875 1.4375 7.6875 1.4375 10 2 C10.33 4.64 10.66 7.28 11 10 C6.78121808 10.19622241 3.82989106 9.80230168 0 8 C-0.38063221 5.6739143 -0.71269945 3.33944736 -1 1 C-0.67 0.67 -0.34 0.34 0 0 Z " fill="#EC5A6C" transform="translate(218,168)"/>
<path d="M0 0 C0.66 0.33 1.32 0.66 2 1 C1.34 2.98 0.68 4.96 0 7 C-0.66 7 -1.32 7 -2 7 C-2 6.34 -2 5.68 -2 5 C-2.66 5 -3.32 5 -4 5 C-4.33 5.99 -4.66 6.98 -5 8 C-5.99 8.33 -6.98 8.66 -8 9 C-8.33 11.31 -8.66 13.62 -9 16 C-11 13 -11 13 -10.6875 9.9375 C-10 7 -10 7 -9 5 C-8.34 5 -7.68 5 -7 5 C-6.67 3.68 -6.34 2.36 -6 1 C-5.67 1.66 -5.34 2.32 -5 3 C-3.68 3 -2.36 3 -1 3 C-0.67 2.01 -0.34 1.02 0 0 Z " fill="#EC5A6C" transform="translate(227,150)"/>
<path d="M0 0 C0.66 0.99 1.32 1.98 2 3 C0.02 3.33 -1.96 3.66 -4 4 C-4 6.31 -4 8.62 -4 11 C-2.35 11.33 -0.7 11.66 1 12 C1 12.33 1 12.66 1 13 C-1.31 13 -3.62 13 -6 13 C-6.06058594 12.39671875 -6.12117187 11.7934375 -6.18359375 11.171875 C-6.30927734 9.97304687 -6.30927734 9.97304687 -6.4375 8.75 C-6.51871094 7.96109375 -6.59992188 7.1721875 -6.68359375 6.359375 C-6.97634993 4.17635361 -7.42064419 2.1226818 -8 0 C-4.67212881 -1.1092904 -3.3006216 -1.01557588 0 0 Z " fill="#DF6070" transform="translate(244,147)"/>
<path d="M0 0 C3.05804426 2.95402915 5.76584388 6.06899919 8.4375 9.375 C9.60925781 10.81939453 9.60925781 10.81939453 10.8046875 12.29296875 C11.52914062 13.18628906 12.25359375 14.07960938 13 15 C14.65888681 17.00671791 16.32790087 19.00426878 18 21 C14 21 14 21 12 19.4375 C10.3363505 17.40992717 9.2212119 15.66000196 8 13.375 C6.11048185 10.18643812 5.42602702 9.10122297 2 8 C2 6.68 2 5.36 2 4 C1.34 4 0.68 4 0 4 C0 2.68 0 1.36 0 0 Z " fill="#778FD2" transform="translate(120,366)"/>
<path d="M0 0 C0.87398437 0.6496875 0.87398437 0.6496875 1.765625 1.3125 C8.37831282 5.80413701 14.02054982 7.45593928 22 6 C23.67757723 5.01841332 25.34653308 4.0216775 27 3 C27.66 3.33 28.32 3.66 29 4 C27.49434784 6.35982021 26.49491433 7.77931992 23.90625 8.93359375 C17.04162992 10.37115218 11.46036047 9.8251094 5 7 C2.77931536 5.46186345 1.63829091 4.20321882 0 2 C0 1.34 0 0.68 0 0 Z " fill="#1F0203" transform="translate(218,176)"/>
<path d="M0 0 C0.99 0 1.98 0 3 0 C2.1875 2.4375 2.1875 2.4375 1 5 C0.01 5.33 -0.98 5.66 -2 6 C-3.39712274 7.95597184 -4.73779907 9.95436401 -6 12 C-6.99 11.67 -7.98 11.34 -9 11 C-9.33 12.65 -9.66 14.3 -10 16 C-11.32 15.34 -12.64 14.68 -14 14 C-13.01 13.67 -12.02 13.34 -11 13 C-10.67 12.01 -10.34 11.02 -10 10 C-9.34 10 -8.68 10 -8 10 C-8 9.34 -8 8.68 -8 8 C-7.34 8 -6.68 8 -6 8 C-5.67 7.01 -5.34 6.02 -5 5 C-4.34 5 -3.68 5 -3 5 C-2.67 4.01 -2.34 3.02 -2 2 C-1.34 2 -0.68 2 0 2 C0 1.34 0 0.68 0 0 Z " fill="#CDCFD7" transform="translate(353,371)"/>
<path d="M0 0 C-0.66 1.03125 -1.32 2.0625 -2 3.125 C-5.05847807 9.09118609 -4.33002209 15.47289652 -4 22 C-4.99 21.67 -5.98 21.34 -7 21 C-7.02725341 19.2709226 -7.04650987 17.54171824 -7.0625 15.8125 C-7.07410156 14.84957031 -7.08570313 13.88664063 -7.09765625 12.89453125 C-7.00486622 10.14423487 -6.62111685 7.67520409 -6 5 C-5.34 5 -4.68 5 -4 5 C-4.34786708 3.02463255 -4.34786708 3.02463255 -5 1 C-5.66 0.67 -6.32 0.34 -7 0 C-4.3333581 -1.33332095 -2.83319697 -0.67102033 0 0 Z " fill="#1D0406" transform="translate(220,150)"/>
<path d="M0 0 C2 1 2 1 2 1 Z M-1 1 C-0.67 1.99 -0.34 2.98 0 4 C3.465 3.505 3.465 3.505 7 3 C7 5.31 7 7.62 7 10 C7.66 10.33 8.32 10.66 9 11 C8.67 11.99 8.34 12.98 8 14 C6.33333333 12.33333333 4.66666667 10.66666667 3 9 C2.236875 8.319375 1.47375 7.63875 0.6875 6.9375 C-1 5 -1 5 -1 1 Z " fill="#8DABF1" transform="translate(141,372)"/>
<path d="M0 0 C2.41847197 2.50484597 3 3.46013806 3 7 C0.69 6.34 -1.62 5.68 -4 5 C-4 5.66 -4 6.32 -4 7 C-4.66 7 -5.32 7 -6 7 C-6 5.02 -6 3.04 -6 1 C-4 0 -4 0 0 0 Z " fill="#F2586B" transform="translate(246,150)"/>
<path d="M0 0 C3.68006822 3.38168431 5.9785845 6.42521756 8 11 C7.01 11.495 7.01 11.495 6 12 C5.67 12.33 5.34 12.66 5 13 C4.34 12.67 3.68 12.34 3 12 C3 11.34 3 10.68 3 10 C2.34 10 1.68 10 1 10 C0.67 6.7 0.34 3.4 0 0 Z " fill="#DBDEE8" transform="translate(385,330)"/>
<path d="M0 0 C0.66 0 1.32 0 2 0 C5.46643068 4.72695093 7.14402684 8.15720671 7.1875 14 C7.20167969 14.86625 7.21585938 15.7325 7.23046875 16.625 C7 19 7 19 5 22 C5.02320313 21.15695313 5.04640625 20.31390625 5.0703125 19.4453125 C5.08835938 18.34960938 5.10640625 17.25390625 5.125 16.125 C5.14820313 15.03445312 5.17140625 13.94390625 5.1953125 12.8203125 C5.30060534 9.8628949 5.30060534 9.8628949 3 8 C1.85179234 5.36587655 0.90883626 2.72650879 0 0 Z " fill="#CA6672" transform="translate(246,150)"/>
<path d="M0 0 C0.66 0.33 1.32 0.66 2 1 C1.67 1.99 1.34 2.98 1 4 C0.34 4 -0.32 4 -1 4 C-1.33 4.66 -1.66 5.32 -2 6 C-3.33333333 6.66666667 -4.66666667 7.33333333 -6 8 C-6.33 8.66 -6.66 9.32 -7 10 C-10.0625 10.625 -10.0625 10.625 -13 11 C-9.0299782 6.78185183 -4.69159716 3.38772897 0 0 Z " fill="#DADEE8" transform="translate(287,313)"/>
<path d="M0 0 C1.65 1.65 3.3 3.3 5 5 C3.1875 6.0625 3.1875 6.0625 1 7 C0.01 6.67 -0.98 6.34 -2 6 C-2.33 7.32 -2.66 8.64 -3 10 C-3.33 9.01 -3.66 8.02 -4 7 C-4.66 6.67 -5.32 6.34 -6 6 C-5.67 5.34 -5.34 4.68 -5 4 C-4.34 3.855625 -3.68 3.71125 -3 3.5625 C-2.01 3.2840625 -2.01 3.2840625 -1 3 C-0.67 2.01 -0.34 1.02 0 0 Z " fill="#120B0C" transform="translate(252,143)"/>
<path d="M0 0 C3.86779381 2.88538792 6.80698215 5.98188807 9.8125 9.75 C10.60269531 10.73484375 11.39289063 11.7196875 12.20703125 12.734375 C12.79871094 13.48203125 13.39039063 14.2296875 14 15 C13.01 15.33 12.02 15.66 11 16 C11 15.01 11 14.02 11 13 C10.38125 12.9175 9.7625 12.835 9.125 12.75 C7 12 7 12 5.875 10 C5.58625 9.34 5.2975 8.68 5 8 C4.34 7.67 3.68 7.34 3 7 C0 2.5 0 2.5 0 0 Z " fill="#768FD0" transform="translate(146,397)"/>
<path d="M0 0 C1.65 0 3.3 0 5 0 C5 5.61 5 11.22 5 17 C4.67 17 4.34 17 4 17 C3.67 14.36 3.34 11.72 3 9 C2.67 9 2.34 9 2 9 C1.855625 7.88625 1.71125 6.7725 1.5625 5.625 C1.21627965 2.17857953 1.21627965 2.17857953 0 0 Z " fill="#7D91BB" transform="translate(178,216)"/>
<path d="M0 0 C0.33 0 0.66 0 1 0 C1 2.64 1 5.28 1 8 C0.37351563 8.04898438 -0.25296875 8.09796875 -0.8984375 8.1484375 C-1.71570313 8.22320312 -2.53296875 8.29796875 -3.375 8.375 C-4.18710938 8.44460937 -4.99921875 8.51421875 -5.8359375 8.5859375 C-8.20334191 8.82892588 -8.20334191 8.82892588 -10 11 C-10.33 9.35 -10.66 7.7 -11 6 C-10.360625 5.87625 -9.72125 5.7525 -9.0625 5.625 C-8.381875 5.41875 -7.70125 5.2125 -7 5 C-6.67 4.34 -6.34 3.68 -6 3 C-5.34 3 -4.68 3 -4 3 C-4.33 3.99 -4.66 4.98 -5 6 C-3.35 6.33 -1.7 6.66 0 7 C0 4.69 0 2.38 0 0 Z " fill="#B4525E" transform="translate(229,152)"/>
<path d="M0 0 C2.97 0 5.94 0 9 0 C8.67 1.32 8.34 2.64 8 4 C6.35 4.33 4.7 4.66 3 5 C2.01 3.35 1.02 1.7 0 0 Z " fill="#EAEAEF" transform="translate(247,329)"/>
<path d="M0 0 C2 1 4 2 6 3 C6 3.66 6 4.32 6 5 C7.98 5.66 9.96 6.32 12 7 C12 7.99 12 8.98 12 10 C7.65574165 9.51980564 5.93796082 8.35568204 3.1875 5 C2.58292969 4.278125 1.97835937 3.55625 1.35546875 2.8125 C0 1 0 1 0 0 Z " fill="#060B1B" transform="translate(153,404)"/>
<path d="M0 0 C0 0.99 0 1.98 0 3 C-2.64 3.66 -5.28 4.32 -8 5 C-8 5.66 -8 6.32 -8 7 C-7.34 7 -6.68 7 -6 7 C-6.33 7.99 -6.66 8.98 -7 10 C-7.66 10 -8.32 10 -9 10 C-9 7.36 -9 4.72 -9 2 C-6.94921875 1.77213542 -4.8984375 1.54427083 -2.84765625 1.31640625 C-0.98859771 1.18113386 -0.98859771 1.18113386 0 0 Z " fill="#C8606C" transform="translate(247,167)"/>
<path d="M0 0 C2.97 0 5.94 0 9 0 C9 0.66 9 1.32 9 2 C8.01 2 7.02 2 6 2 C6.33 2.99 6.66 3.98 7 5 C4.69 5.33 2.38 5.66 0 6 C0 4 0 4 2 2 C1.34 2 0.68 2 0 2 C0 1.34 0 0.68 0 0 Z " fill="#D06573" transform="translate(230,145)"/>
<path d="M0 0 C1.37478516 0.01740234 1.37478516 0.01740234 2.77734375 0.03515625 C3.69644531 0.04417969 4.61554688 0.05320312 5.5625 0.0625 C6.27277344 0.07410156 6.98304688 0.08570313 7.71484375 0.09765625 C7.71484375 0.75765625 7.71484375 1.41765625 7.71484375 2.09765625 C8.37484375 2.75765625 9.03484375 3.41765625 9.71484375 4.09765625 C8.29733812 3.98255964 6.88083206 3.85511967 5.46484375 3.72265625 C4.6759375 3.65304687 3.88703125 3.5834375 3.07421875 3.51171875 C0.62896675 3.08258512 -1.13352528 2.31164987 -3.28515625 1.09765625 C-2.28515625 0.09765625 -2.28515625 0.09765625 0 0 Z " fill="#D3D6DD" transform="translate(308.28515625,451.90234375)"/>
<path d="M0 0 C2.625 0.9375 2.625 0.9375 5 2 C4.67 4.31 4.34 6.62 4 9 C3.01 8.67 2.02 8.34 1 8 C-0.6875 4.4375 -0.6875 4.4375 -2 1 C-1.34 0.67 -0.68 0.34 0 0 Z " fill="#DDE0EA" transform="translate(259,411)"/>
<path d="M0 0 C0.99 0.99 1.98 1.98 3 3 C0.36 4.98 -2.28 6.96 -5 9 C-5 6.69 -5 4.38 -5 2 C-4.01 2 -3.02 2 -2 2 C-1.34 1.34 -0.68 0.68 0 0 Z " fill="#E3E4E9" transform="translate(217,137)"/>
<path d="M0 0 C3.96 0 7.92 0 12 0 C12 3.96 12 7.92 12 12 C11.67 12 11.34 12 11 12 C10.8046875 9.98177083 10.609375 7.96354167 10.4140625 5.9453125 C10.13625251 3.77331755 10.13625251 3.77331755 8 2 C5.34462628 1.43479997 2.70855287 1.26211802 0 1 C0 0.67 0 0.34 0 0 Z " fill="#6377AC" transform="translate(347,100)"/>
<path d="M0 0 C0.99 0.33 1.98 0.66 3 1 C3 3.31 3 5.62 3 8 C4.65 8.33 6.3 8.66 8 9 C8 9.33 8 9.66 8 10 C5.69 10 3.38 10 1 10 C0.67 6.7 0.34 3.4 0 0 Z " fill="#B35B65" transform="translate(237,150)"/>
<path d="M0 0 C2.25 0.0625 2.25 0.0625 5 1 C6.81701739 3.24587864 7.78041244 5.32628881 9 8 C8.67 8.66 8.34 9.32 8 10 C6.66370254 8.52351062 5.33103329 7.0437367 4 5.5625 C3.2575 4.73878906 2.515 3.91507812 1.75 3.06640625 C0 1 0 1 0 0 Z " fill="#03081C" transform="translate(134,382)"/>
<path d="M0 0 C0 3 0 3 -1 6 C-1.99 6.33 -2.98 6.66 -4 7 C-4.99 8.485 -4.99 8.485 -6 10 C-6.99 10 -7.98 10 -9 10 C-7.84906278 6.54718834 -6.6794007 5.61917837 -3.9375 3.3125 C-2.83728516 2.37857422 -2.83728516 2.37857422 -1.71484375 1.42578125 C-1.14894531 0.95527344 -0.58304687 0.48476563 0 0 Z " fill="#151619" transform="translate(381,433)"/>
<path d="M0 0 C3 1 3 1 4.1875 3.25 C4.99938294 5.99791147 5.16260121 8.15447889 5 11 C0 4.63636364 0 4.63636364 0 0 Z " fill="#04071E" transform="translate(248,412)"/>
<path d="M0 0 C0.33 0 0.66 0 1 0 C1 1.65 1 3.3 1 5 C0.01 5.33 -0.98 5.66 -2 6 C-2.99 7.485 -2.99 7.485 -4 9 C-4.99 8.34 -5.98 7.68 -7 7 C-6.01 6.67 -5.02 6.34 -4 6 C-4 5.34 -4 4.68 -4 4 C-3.34 4 -2.68 4 -2 4 C-1.34 2.68 -0.68 1.36 0 0 Z " fill="#C9CBD3" transform="translate(325,399)"/>
<path d="M0 0 C0.66 0.33 1.32 0.66 2 1 C2.33 1.99 2.66 2.98 3 4 C3.99 4.33 4.98 4.66 6 5 C5.01 6.485 5.01 6.485 4 8 C2.02 5.69 0.04 3.38 -2 1 C-1.34 0.67 -0.68 0.34 0 0 Z " fill="#D1D5DF" transform="translate(293,384)"/>
<path d="M0 0 C2.97 0.99 5.94 1.98 9 3 C8.34 4.65 7.68 6.3 7 8 C3.49055963 5.41409657 2.0042017 4.0084034 0 0 Z " fill="#05091D" transform="translate(122,368)"/>
<path d="M0 0 C0.99 0.33 1.98 0.66 3 1 C0.53846154 6.66153846 0.53846154 6.66153846 -2.1875 8.375 C-2.785625 8.58125 -3.38375 8.7875 -4 9 C-2.94124926 5.59687262 -1.99097846 2.98646769 0 0 Z " fill="#DDDFE7" transform="translate(261,339)"/>
<path d="M0 0 C0.66 0.33 1.32 0.66 2 1 C0.88671875 2.984375 0.88671875 2.984375 -1 5 C-3.91796875 5.390625 -3.91796875 5.390625 -7.1875 5.25 C-8.27417969 5.21390625 -9.36085937 5.1778125 -10.48046875 5.140625 C-11.31191406 5.09421875 -12.14335937 5.0478125 -13 5 C-13 4.67 -13 4.34 -13 4 C-12.31292969 3.87882813 -11.62585938 3.75765625 -10.91796875 3.6328125 C-9.56638672 3.38144531 -9.56638672 3.38144531 -8.1875 3.125 C-7.29417969 2.96257812 -6.40085938 2.80015625 -5.48046875 2.6328125 C-2.77272154 2.08811551 -2.77272154 2.08811551 0 0 Z " fill="#2B090A" transform="translate(245,179)"/>
<path d="M0 0 C0.33 0.99 0.66 1.98 1 3 C-0.65 4.32 -2.3 5.64 -4 7 C-4.99 6.34 -5.98 5.68 -7 5 C-7.33 5.66 -7.66 6.32 -8 7 C-7.67 5.68 -7.34 4.36 -7 3 C-5.02 3 -3.04 3 -1 3 C-0.67 2.01 -0.34 1.02 0 0 Z " fill="#DDE0EB" transform="translate(386,425)"/>
<path d="M0 0 C2.475 0.495 2.475 0.495 5 1 C5.33 1.99 5.66 2.98 6 4 C6.66 4.33 7.32 4.66 8 5 C7.67 5.99 7.34 6.98 7 8 C4.35247996 5.42215154 2.05567935 3.08351902 0 0 Z " fill="#8EA5DD" transform="translate(142,378)"/>
<path d="M0 0 C0 2.83967231 -0.40267181 5.23735711 -1 8 C-1.99 7.67 -2.98 7.34 -4 7 C-5.1875 4.4375 -5.1875 4.4375 -6 2 C-4.02 1.34 -2.04 0.68 0 0 Z " fill="#E1E2E7" transform="translate(310,288)"/>
<path d="M0 0 C0.33 0.66 0.66 1.32 1 2 C-0.65 3.65 -2.3 5.3 -4 7 C-4.99 6.34 -5.98 5.68 -7 5 C-4.69 3.35 -2.38 1.7 0 0 Z " fill="#CF5E6C" transform="translate(226,146)"/>
<path d="M0 0 C0.33 0 0.66 0 1 0 C1 1.65 1 3.3 1 5 C-2.465 6.485 -2.465 6.485 -6 8 C-6 7.34 -6 6.68 -6 6 C-5.34 6 -4.68 6 -4 6 C-4 5.34 -4 4.68 -4 4 C-3.34 4 -2.68 4 -2 4 C-1.34 2.68 -0.68 1.36 0 0 Z " fill="#CBCED7" transform="translate(317,407)"/>
<path d="M0 0 C3.91402949 1.26941497 5.79072873 2.51167694 8 6 C4 6 4 6 1.75 4.125 C0 2 0 2 0 0 Z " fill="#708CDA" transform="translate(130,381)"/>
<path d="M0 0 C0.66 0.66 1.32 1.32 2 2 C1.67 2.66 1.34 3.32 1 4 C0.34 4 -0.32 4 -1 4 C-1.33 5.32 -1.66 6.64 -2 8 C-2.99 7.34 -3.98 6.68 -5 6 C-3.35 4.02 -1.7 2.04 0 0 Z " fill="#D0D3DB" transform="translate(269,328)"/>
<path d="M0 0 C2.00720923 0.28674418 4.0085944 0.61866701 6 1 C6 1.99 6 2.98 6 4 C5.01 4.33 4.02 4.66 3 5 C2.34 4.67 1.68 4.34 1 4 C1 3.34 1 2.68 1 2 C0.34 1.67 -0.32 1.34 -1 1 C-0.67 0.67 -0.34 0.34 0 0 Z " fill="#D8DBE6" transform="translate(362,313)"/>
<path d="M0 0 C2.475 0.99 2.475 0.99 5 2 C4.34 3.32 3.68 4.64 3 6 C2.01 6 1.02 6 0 6 C0.33 5.01 0.66 4.02 1 3 C0.34 2.67 -0.32 2.34 -1 2 C-0.67 1.34 -0.34 0.68 0 0 Z " fill="#E4E4E9" transform="translate(273,305)"/>
<path d="M0 0 C2.64 0.33 5.28 0.66 8 1 C7.67 1.66 7.34 2.32 7 3 C4.36 3 1.72 3 -1 3 C-0.67 2.01 -0.34 1.02 0 0 Z " fill="#391517" transform="translate(239,166)"/>
<path d="M0 0 C2.64 0.33 5.28 0.66 8 1 C8 1.99 8 2.98 8 4 C8.66 4 9.32 4 10 4 C9.67 4.66 9.34 5.32 9 6 C6.03 4.35 3.06 2.7 0 1 C0 0.67 0 0.34 0 0 Z " fill="#D0D3DD" transform="translate(284,443)"/>
<path d="M0 0 C1.98 0.66 3.96 1.32 6 2 C6.33 3.65 6.66 5.3 7 7 C5.83040013 6.02433888 4.66438823 5.044375 3.5 4.0625 C2.8503125 3.51722656 2.200625 2.97195313 1.53125 2.41015625 C1.0259375 1.94480469 0.520625 1.47945313 0 1 C0 0.67 0 0.34 0 0 Z " fill="#8CA2D7" transform="translate(152,390)"/>
<path d="M0 0 C2.4294516 3.6441774 2.16179575 5.71241272 2 10 C1.01 10 0.02 10 -1 10 C-0.67 6.7 -0.34 3.4 0 0 Z " fill="#C9CDD6" transform="translate(251,362)"/>
<path d="M0 0 C1 2 1 2 0.4375 4.0625 C-1 6 -1 6 -4.125 6.75 C-5.548125 6.87375 -5.548125 6.87375 -7 7 C-4.66666667 4.66666667 -2.33333333 2.33333333 0 0 Z " fill="#D4D7DF" transform="translate(281,317)"/>
<path d="M0 0 C3.63 0.33 7.26 0.66 11 1 C11 1.66 11 2.32 11 3 C8.83032311 3.95465783 7.43671207 4.14401212 5.17578125 3.3984375 C3.4315257 2.64129615 1.71372869 1.82390802 0 1 C0 0.67 0 0.34 0 0 Z " fill="#D5D8E1" transform="translate(333,303)"/>
<path d="M0 0 C2 1 2 1 2.75 2.875 C3 5 3 5 1 8 C-1 6 -1 6 -1.1875 3.4375 C-1 1 -1 1 0 0 Z " fill="#18181E" transform="translate(205,267)"/>
<path d="M0 0 C2.475 0.99 2.475 0.99 5 2 C3.75 3.5625 3.75 3.5625 2 5 C-0.1875 4.6875 -0.1875 4.6875 -2 4 C-1.34 2.68 -0.68 1.36 0 0 Z " fill="#E9E9EF" transform="translate(155,240)"/>
<path d="M0 0 C2.4375 0.6875 2.4375 0.6875 5 2 C5.8125 4.625 5.8125 4.625 6 7 C1.125 2.25 1.125 2.25 0 0 Z " fill="#03081D" transform="translate(143,392)"/>
<path d="M0 0 C0.33 0.66 0.66 1.32 1 2 C1.99 2.33 2.98 2.66 4 3 C4 3.99 4 4.98 4 6 C2.02 5.34 0.04 4.68 -2 4 C-1.34 2.68 -0.68 1.36 0 0 Z " fill="#E5E5E9" transform="translate(155,345)"/>
<path d="M0 0 C0.99 0.33 1.98 0.66 3 1 C2.625 2.9375 2.625 2.9375 2 5 C1.01 5.495 1.01 5.495 0 6 C0 5.34 0 4.68 0 4 C-0.66 3.67 -1.32 3.34 -2 3 C-1.34 2.01 -0.68 1.02 0 0 Z " fill="#E8E9EE" transform="translate(203,273)"/>
<path d="M0 0 C0.33 1.32 0.66 2.64 1 4 C1.33 4.99 1.66 5.98 2 7 C0.35 7.66 -1.3 8.32 -3 9 C-2.01 6.03 -1.02 3.06 0 0 Z " fill="#D2D3D8" transform="translate(261,170)"/>
</svg>
